# xmcd CD database file
#
# Track frame offsets:
#	150
#	37644
#	55604
#	73573
#	92145
#	115588
#	134000
#	144710
#	162912
#	176120
#	197989
#
# Disc length: 2934 seconds
#
# Revision: 3
# Processed by: cddbd v1.5.1PL2 Copyright (c) Steve Scherf et al.
# Submitted via: CDex 1.51
#
DISCID=990b740b
DTITLE=Donna Michael - Out of  the Darkness Instrumental CD
DYEAR=2006
DGENRE=New Age
TTITLE0=Donna Michael - Cradle Me
TTITLE1=Donna Michael - God Is Holding Me
TTITLE2=Donna Michael - I Remember
TTITLE3=Donna Michael - Perfect Peace
TTITLE4=Donna Michael - Out of  the Darkness
TTITLE5=Donna Michael - I Am Blessed
TTITLE6=Donna Michael - All I Give
TTITLE7=Donna Michael - One With Spirit
TTITLE8=Donna Michael - Possibility
TTITLE9=Donna Michael - May You Be Blessed
TTITLE10=Donna Michael - Cradle Me (Reprise)
EXTD=YEAR: 2006
EXTT0=
EXTT1=
EXTT2=
EXTT3=
EXTT4=
EXTT5=
EXTT6=
EXTT7=
EXTT8=
EXTT9=
EXTT10=
PLAYORDER=
